<?xml version="1.0" encoding="UTF-8"?>
<svg id="Layer_1" xmlns="http://www.w3.org/2000/svg" version="1.1" viewBox="0 0 50 50">
  <!-- Generator: Adobe Illustrator 29.2.1, SVG Export Plug-In . SVG Version: 2.1.0 Build 116)  -->
  <defs>
    <style>
      .st0 {
        fill: #fff;
      }
    </style>
  </defs>
  <path class="st0" d="M25,3C12.9,3,3,12.9,3,25s8.1,20.1,18.7,21.7l1.1.2v-17.3h-5.2v-3.5h5.2v-4.7c0-2.9.7-4.8,1.8-6s2.8-1.8,5.2-1.8,2.6.1,3.3.2v2.9h-2.4c-1.4,0-2.5.8-3.1,1.8-.6,1-.8,2.3-.8,3.5v4h6.1l-.5,3.5h-5.6v17.4l1.1-.2c10.7-1.5,19-10.6,19-21.8S37.1,3,25,3ZM25,5c11.1,0,20,8.9,20,20s-7,17.7-16.2,19.5v-13h5.3l1.2-7.5h-6.5v-2c0-1,.2-2,.5-2.5.3-.6.6-.8,1.4-.8h4.4v-6.7h-.9c-.6-.2-2-.4-4.4-.4s-5,.7-6.6,2.4c-1.6,1.7-2.4,4.1-2.4,7.3v2.7h-5.2v7.5h5.2v12.9c-9-1.9-15.9-9.8-15.9-19.5S13.9,5,25,5Z"/>
</svg>