<?xml version="1.0" encoding="UTF-8"?>
<svg id="Layer_1" xmlns="http://www.w3.org/2000/svg" version="1.1" viewBox="0 0 50 50">
  <!-- Generator: Adobe Illustrator 29.2.1, SVG Export Plug-In . SVG Version: 2.1.0 Build 116)  -->
  <defs>
    <style>
      .st0 {
        fill: #fff;
      }
    </style>
  </defs>
  <path class="st0" d="M16,3c-7.2,0-13,5.8-13,13v18c0,7.2,5.8,13,13,13h18c7.2,0,13-5.8,13-13v-18c0-7.2-5.8-13-13-13h-18ZM16,5h18c6.1,0,11,4.9,11,11v18c0,6.1-4.9,11-11,11h-18c-6.1,0-11-4.9-11-11v-18c0-6.1,4.9-11,11-11ZM37,11c-1.1,0-2,.9-2,2s.9,2,2,2,2-.9,2-2-.9-2-2-2ZM25,14c-6.1,0-11,4.9-11,11s4.9,11,11,11,11-4.9,11-11-4.9-11-11-11ZM25,16c5,0,9,4,9,9s-4,9-9,9-9-4-9-9,4-9,9-9Z"/>
</svg>