<?xml version="1.0" encoding="UTF-8"?>
<svg id="Layer_1" xmlns="http://www.w3.org/2000/svg" xmlns:xlink="http://www.w3.org/1999/xlink" version="1.1" viewBox="0 0 1920 1080">
  <!-- Generator: Adobe Illustrator 29.2.1, SVG Export Plug-In . SVG Version: 2.1.0 Build 116)  -->
  <defs>
    <style>
      .st0 {
        fill: #fff;
      }
    </style>
    <symbol id="Unna_Text" viewBox="0 0 192.4 90.7">
      <g>
        <path class="st0" d="M178.8,15.1c-2.7-2.2-15.3,13.5-24.2,16.4-18.5,2.4,6.3-18.7,9.3-21.3,3-2.6,5.8-4.8,10.4-7.4,6.5-3.5,9.1-2.9,11.4-2,7.6,3,7,15,6.5,22.8-1.6,12.5-3.1,25.1-4.4,37.6,10.5,7.9-3.8,2.1-.3,19.1.3,5.7-13.3,2.2-13.2-1.1s.2-4,.4-6c-2.3,0-11.8,3.8-20.5-6.6-2.1-2.6-4.2-8.1-3-12.6,2.5-9.9,11.1-13.6,14.9-14.8s5.8-1.7,8.3-2c.6,0,2-.2,2.6-.2.2-1.7,1.3-7.3,1.7-9.3.6-3.1,2.7-10.3,0-12.6ZM169.8,62.9c1.8,0,5.4-.3,5.8-2.9.4-3.5.8-8.2,1-11.7-.7-5-8.6-1.3-11.2,3.2-2.2,3.7-2,10.8,4.4,11.4Z"/>
        <path class="st0" d="M131.4,18.7c-2.3-.8-9.8,8.1-11.5,10.5s-4,5.9-4,10c-.1,3.6-.3,4.9-.3,8.6,0,9.9-.6,19.5-.9,29.3-.4,3.5-5.8,3.1-8.4,3-3.4-.2-4.8-2-4.5-5.2,1.8-13.2,1.5-28,2.2-41.4,0-7.1,0-11.2-1-19.9-.2-2-.6-5.3-.1-6.3,2.7-7,9.5-4.9,12.3,4.6.4,1.5.6,3.1.7,4.5s-.1,3.9.4,3.2c8.7-14.9,28.4-27,28.7-2,0,6.8-2,13.5-2.6,20.2-1.5,10.3-2.9,20.7-3.7,31.1-.2,3.7,0,7.4.2,11.1.2,3.4,1.8,7.4-1.8,9.6-4,2-10.5,2.3-10.6-3.7-1.2-19,1.8-35.9,4.6-54.4s2.9-11.7.3-12.7Z"/>
        <path class="st0" d="M68.7,14.2c4.7-4.3,12.6-16.1,21.8-8.9,3.1,3.1,4.3,8.4,4.1,13.2-.2,6-1.4,15.1-1.8,21.5-.6,10.1-1.1,22.6-1.3,27.8-.2,4.8-.2,8.9.4,14,.2,2.5-.8,3.4-3,4.2-2.2.8-5,2.2-7.2,1s-3.3-2.8-3.1-5.7c.3-12.5.2-25,1.9-37.5.8-8,1.4-17.7,1.5-19.8s.6-5.4-.9-6c-1.9-.6-7.3,2.6-10.2,6.9-3.2,4.7-4.3,17-4.4,20.2s-.2,23.7-.3,29.1,1.4,10.9-1,12.2c-5.3,2.5-12.4,5.2-12.2-4,2.3-20,2.2-40.1,2.9-60.1.1-4,.2-7.9.1-11.8,0-2.1,0-4.2,1.2-4.9,4.4-2.9,11-1.3,10.9,5,0,1.1.2,2.1.4,3.8Z"/>
        <path class="st0" d="M32.5,81.6c-3-4.3-.7-15.5-4-12.4-6.4,6.7-17.6,7-23.6-2C-1.8,56.3.1,42.9.7,31.7s.9-11.1,1.5-16.4c0-3.7,4.8-3.8,7.6-4.6,2.2-.3,3.7.9,3.2,5.6-.5,4.8-1.4,8-1.8,12.5s-3,34.3,6.9,35.4c2.3.3,4.2-.2,7.5-4.9,3.8-5.5,4.7-9,6.8-23.2,2.1-14.2,2.5-22.1,4.1-32.9.1-1,1.2-2.3,2.1-2.6,3.7-1.4,9.8-.8,9.4,4.5-.5,8.7-4.7,36.3-4.8,41.7-1.1,11.1-.4,24.4.5,33.4,0,.3.1.8,0,1.1s-.6.4-.8.5c-2.3.9-8.6,3.3-10.5-.2Z"/>
      </g>
    </symbol>
  </defs>
  <path id="unna_bulle_kontur" d="M1050.2,528c-2.2-1.9-2.7-3.4-1.9-6.2,1.8-6,2.6-12.3,3.1-18.6,4.2-39-19.8-59-56.8-60.7-37.5.3-54.5,9.6-82.8,33-26.8,26.9-49.8,50.9-50.6,93.5-.3,16.6,3.7,24.1,13.4,37.1,14.6,19.4,41,28,64.6,24.6,2.2-.5,4-.3,6,.7,4.6,2.2,9.3,3.9,14.5,4.5,21,2.4,42.2-6.8,56.7-21.8,15.1-15.8,28.2-33.5,37.6-53.4,5.7-9.4,4.5-25.2-3.9-32.7Z"/>
  <use id="unna_text" width="192.4" height="90.7" transform="translate(900.7 525.1) scale(.6)" xlink:href="#Unna_Text"/>
</svg>