<?xml version="1.0" encoding="UTF-8"?>
<svg id="Layer_1" xmlns="http://www.w3.org/2000/svg" version="1.1" viewBox="0 0 1920 1080">
  <!-- Generator: Adobe Illustrator 29.2.1, SVG Export Plug-In . SVG Version: 2.1.0 Build 116)  -->
  <defs>
    <style>
      .st0 {
        fill: #fff;
      }
    </style>
  </defs>
  <g id="unna_text">
    <path class="st0" d="M1009.4,523.8c-1.7-1.4-9.3,8.2-14.8,10-11.3,1.4,3.8-11.4,5.6-13,1.8-1.6,3.5-2.9,6.4-4.5,4-2.2,5.5-1.8,7-1.2,4.7,1.9,4.3,9.2,3.9,13.9-1,7.6-1.9,15.3-2.7,22.9,6.4,4.8-2.3,1.3-.2,11.6.2,3.4-8.1,1.4-8-.7s.1-2.4.2-3.7c-1.4,0-7.2,2.3-12.5-4-1.3-1.6-2.6-4.9-1.9-7.7,1.6-6,6.8-8.3,9.1-9s3.5-1,5.1-1.2c.4,0,1.2-.1,1.6-.1.1-1,.8-4.4,1-5.6.4-1.9,1.6-6.3,0-7.7ZM1004,553c1.1,0,3.3-.2,3.5-1.8.3-2.1.5-5,.6-7.1-.4-3.1-5.2-.8-6.8,1.9s-1.2,6.6,2.7,7Z"/>
    <path class="st0" d="M980.5,526c-1.4-.5-5.9,4.9-7,6.4s-2.4,3.6-2.5,6.1c0,2.2-.2,3-.2,5.2,0,6-.3,11.9-.5,17.9-.2,2.2-3.5,1.9-5.1,1.8-2.1-.1-2.9-1.2-2.8-3.2,1.1-8.1.9-17.1,1.4-25.2,0-4.3,0-6.8-.6-12.1-.1-1.2-.3-3.2,0-3.9,1.6-4.3,5.8-3,7.5,2.8.3.9.4,1.9.4,2.7s0,2.4.2,2c5.3-9.1,17.3-16.5,17.5-1.2,0,4.1-1.2,8.2-1.6,12.3-.9,6.3-1.7,12.6-2.3,18.9-.1,2.2,0,4.5.1,6.8.1,2.1,1.1,4.5-1.1,5.9-2.5,1.2-6.4,1.4-6.5-2.2-.7-11.6,1.1-21.9,2.8-33.2.3-2,1.8-7.2.2-7.7Z"/>
    <path class="st0" d="M942.3,523.3c2.8-2.6,7.7-9.8,13.3-5.5,1.9,1.9,2.6,5.1,2.5,8.1-.1,3.7-.8,9.2-1.1,13.1-.4,6.1-.7,13.8-.8,17-.1,2.9-.1,5.4.2,8.5.1,1.5-.5,2.1-1.8,2.6s-3.1,1.3-4.4.6-2-1.7-1.9-3.5c.2-7.6.1-15.3,1.1-22.9.5-4.8.9-10.8.9-12.1s.4-3.3-.5-3.7c-1.1-.3-4.5,1.6-6.2,4.2-1.9,2.8-2.6,10.4-2.7,12.3s-.1,14.4-.2,17.8.8,6.6-.6,7.4c-3.3,1.5-7.6,3.2-7.4-2.4,1.4-12.2,1.3-24.4,1.8-36.7,0-2.4.1-4.8,0-7.2s0-2.6.7-3c2.7-1.8,6.7-.8,6.6,3,0,.7.1,1.3.2,2.3Z"/>
    <path class="st0" d="M920.2,564.4c-1.8-2.6-.4-9.4-2.4-7.5-3.9,4.1-10.7,4.2-14.4-1.2-4.1-6.7-2.9-14.9-2.5-21.7s.5-6.8.9-10c0-2.3,2.9-2.3,4.6-2.8,1.4-.2,2.3.5,2,3.4-.3,2.9-.9,4.9-1.1,7.6s-1.8,20.9,4.2,21.6,2.5-.1,4.6-3c2.3-3.3,2.8-5.5,4.1-14.1,1.3-8.7,1.5-13.5,2.5-20,0-.6.7-1.4,1.3-1.6,2.3-.8,6-.5,5.7,2.7-.3,5.3-2.8,22.2-2.9,25.4-.6,6.8-.2,14.9.3,20.4s0,.5,0,.7-.4.3-.5.3c-1.4.6-5.3,2-6.4-.1Z"/>
  </g>
</svg>